<svg width="106" height="24" viewBox="0 0 106 24" fill="none" xmlns="http://www.w3.org/2000/svg">
<path d="M20 14.4093C19.7748 8.35169 15.8344 3.83604 13.4702 1.74343C12.3444 0.75219 10.543 0.75219 9.41722 1.74343C7.16556 3.94618 3.22517 8.35169 3 14.4093C3 14.5194 3 14.7397 3 14.8498C3 19.3655 6.82781 23 11.4437 23C16.1722 23 19.8874 19.3655 19.8874 14.8498C20 14.6295 20 14.5194 20 14.4093ZM12.7947 20.3567C12.2318 20.7972 11.5563 20.9074 10.8808 20.6871C10.3179 20.4668 9.86755 20.2466 9.64238 19.6959C9.30464 18.9249 9.30464 17.9337 9.64238 16.9424C10.0927 15.7309 11.106 14.189 11.5563 14.0788C12.9073 15.1802 13.8079 17.0526 13.8079 18.5945C13.6954 19.3655 13.3576 19.9161 12.7947 20.3567ZM15.947 19.035C15.947 18.9249 15.947 18.8148 15.947 18.7046C15.947 16.3917 14.7086 13.9687 12.9073 12.4268C12.3444 11.9862 11.6689 11.766 10.8808 11.9862C8.74172 12.5369 7.50331 16.1715 7.50331 16.2816C7.16556 17.2728 7.05298 18.2641 7.16556 19.1452C6.03974 18.0438 5.25166 16.5019 5.25166 14.8498C5.25166 14.7397 5.25166 14.6295 5.25166 14.5194C5.36424 9.23279 8.96689 5.26783 10.9934 3.39549C11.106 3.28536 11.3311 3.17522 11.4437 3.17522C11.5563 3.17522 11.7815 3.28536 12.0066 3.39549C14.1457 5.26783 17.6358 9.23279 17.7483 14.5194C17.7483 14.6295 17.7483 14.7397 17.7483 14.7397C17.7483 16.5019 17.0728 17.9337 15.947 19.035Z" fill="#ED7E1C"/>
<path d="M29.2 19V5H37.5V7.76H31.96V10.12H36.54V12.88H31.96V19H29.2ZM38.2992 9H41.0592V19H38.2992V9ZM39.6992 7.85C39.2992 7.85 38.9626 7.71667 38.6892 7.45C38.4159 7.18333 38.2792 6.85333 38.2792 6.46C38.2792 6.06667 38.4159 5.73667 38.6892 5.47C38.9626 5.20333 39.2959 5.07 39.6892 5.07C40.0826 5.07 40.4126 5.20333 40.6792 5.47C40.9526 5.73667 41.0892 6.06667 41.0892 6.46C41.0892 6.85333 40.9559 7.18333 40.6892 7.45C40.4292 7.71667 40.0992 7.85 39.6992 7.85ZM43.2678 19L43.2578 9H46.0178L46.0278 9.74C46.3611 9.42 46.7511 9.17 47.1978 8.99C47.6511 8.81 48.1278 8.72 48.6278 8.72C48.9945 8.72 49.3611 8.77333 49.7278 8.88L48.6378 11.67C48.3978 11.57 48.1545 11.52 47.9078 11.52C47.5611 11.52 47.2445 11.6033 46.9578 11.77C46.6711 11.9367 46.4445 12.1633 46.2778 12.45C46.1111 12.73 46.0278 13.0467 46.0278 13.4V19H43.2678ZM54.6477 19.26C53.7277 19.26 52.8877 19.0233 52.1277 18.55C51.3743 18.0767 50.771 17.44 50.3177 16.64C49.871 15.84 49.6477 14.9567 49.6477 13.99C49.6477 13.2633 49.7777 12.5833 50.0377 11.95C50.2977 11.31 50.6543 10.75 51.1077 10.27C51.5677 9.78333 52.101 9.40333 52.7077 9.13C53.3143 8.85667 53.961 8.72 54.6477 8.72C55.441 8.72 56.1643 8.89 56.8177 9.23C57.4777 9.57 58.0343 10.0333 58.4877 10.62C58.9477 11.2067 59.2743 11.87 59.4677 12.61C59.6677 13.35 59.701 14.12 59.5677 14.92H52.6277C52.7143 15.2133 52.8477 15.48 53.0277 15.72C53.2143 15.9533 53.441 16.14 53.7077 16.28C53.981 16.42 54.2943 16.4933 54.6477 16.5C54.9943 16.5067 55.3143 16.4267 55.6077 16.26C55.901 16.0933 56.151 15.87 56.3577 15.59L59.1777 16.24C58.771 17.1267 58.1643 17.8533 57.3577 18.42C56.551 18.98 55.6477 19.26 54.6477 19.26ZM52.5277 12.88H56.7777C56.691 12.5467 56.5443 12.2467 56.3377 11.98C56.131 11.7133 55.881 11.5033 55.5877 11.35C55.301 11.1967 54.9877 11.12 54.6477 11.12C54.3143 11.12 54.001 11.1967 53.7077 11.35C53.421 11.5033 53.1743 11.7133 52.9677 11.98C52.7677 12.24 52.621 12.54 52.5277 12.88ZM71.9291 5V6.4H67.1291V19H65.7291V6.4H60.9391V5H71.9291ZM76.6742 19.26C75.7542 19.26 74.9142 19.0233 74.1542 18.55C73.4009 18.0767 72.7976 17.4433 72.3442 16.65C71.8976 15.85 71.6742 14.9667 71.6742 14C71.6742 13.2667 71.8042 12.5833 72.0642 11.95C72.3242 11.31 72.6809 10.75 73.1342 10.27C73.5942 9.78333 74.1276 9.40333 74.7342 9.13C75.3409 8.85667 75.9876 8.72 76.6742 8.72C77.5942 8.72 78.4309 8.95667 79.1842 9.43C79.9442 9.90333 80.5476 10.54 80.9942 11.34C81.4476 12.14 81.6742 13.0267 81.6742 14C81.6742 14.7267 81.5442 15.4067 81.2842 16.04C81.0242 16.6733 80.6642 17.2333 80.2042 17.72C79.7509 18.2 79.2209 18.5767 78.6142 18.85C78.0142 19.1233 77.3676 19.26 76.6742 19.26ZM76.6742 17.86C77.3542 17.86 77.9642 17.6833 78.5042 17.33C79.0509 16.97 79.4809 16.4967 79.7942 15.91C80.1142 15.3233 80.2742 14.6867 80.2742 14C80.2742 13.3 80.1142 12.6567 79.7942 12.07C79.4742 11.4767 79.0409 11.0033 78.4942 10.65C77.9542 10.2967 77.3476 10.12 76.6742 10.12C75.9942 10.12 75.3809 10.3 74.8342 10.66C74.2942 11.0133 73.8642 11.4833 73.5442 12.07C73.2309 12.6567 73.0742 13.3 73.0742 14C73.0742 14.72 73.2376 15.3733 73.5642 15.96C73.8909 16.54 74.3276 17.0033 74.8742 17.35C75.4209 17.69 76.0209 17.86 76.6742 17.86ZM91.4003 4H92.8003V19H91.4003V17.13C91.0536 17.77 90.577 18.2867 89.9703 18.68C89.3703 19.0667 88.657 19.26 87.8303 19.26C87.1036 19.26 86.4236 19.1233 85.7903 18.85C85.157 18.5767 84.597 18.2 84.1103 17.72C83.6303 17.2333 83.2536 16.6733 82.9803 16.04C82.707 15.4067 82.5703 14.7267 82.5703 14C82.5703 13.2733 82.707 12.5933 82.9803 11.96C83.2536 11.32 83.6303 10.76 84.1103 10.28C84.597 9.79333 85.157 9.41333 85.7903 9.14C86.4236 8.86667 87.1036 8.73 87.8303 8.73C88.657 8.73 89.3703 8.92667 89.9703 9.32C90.577 9.70667 91.0536 10.2167 91.4003 10.85V4ZM87.8403 17.9C88.5536 17.9 89.167 17.7267 89.6803 17.38C90.1936 17.0267 90.587 16.5533 90.8603 15.96C91.1403 15.3667 91.2803 14.7133 91.2803 14C91.2803 13.2667 91.1403 12.6067 90.8603 12.02C90.5803 11.4267 90.1836 10.9567 89.6703 10.61C89.157 10.2633 88.547 10.09 87.8403 10.09C87.1336 10.09 86.4903 10.2667 85.9103 10.62C85.3303 10.9667 84.867 11.4367 84.5203 12.03C84.1736 12.6233 84.0003 13.28 84.0003 14C84.0003 14.7267 84.177 15.3867 84.5303 15.98C84.8836 16.5667 85.3503 17.0333 85.9303 17.38C86.517 17.7267 87.1536 17.9 87.8403 17.9ZM99.4234 19.26C98.5034 19.26 97.6634 19.0233 96.9034 18.55C96.1501 18.0767 95.5468 17.4433 95.0934 16.65C94.6468 15.85 94.4234 14.9667 94.4234 14C94.4234 13.2667 94.5534 12.5833 94.8134 11.95C95.0734 11.31 95.4301 10.75 95.8834 10.27C96.3434 9.78333 96.8768 9.40333 97.4834 9.13C98.0901 8.85667 98.7368 8.72 99.4234 8.72C100.343 8.72 101.18 8.95667 101.933 9.43C102.693 9.90333 103.297 10.54 103.743 11.34C104.197 12.14 104.423 13.0267 104.423 14C104.423 14.7267 104.293 15.4067 104.033 16.04C103.773 16.6733 103.413 17.2333 102.953 17.72C102.5 18.2 101.97 18.5767 101.363 18.85C100.763 19.1233 100.117 19.26 99.4234 19.26ZM99.4234 17.86C100.103 17.86 100.713 17.6833 101.253 17.33C101.8 16.97 102.23 16.4967 102.543 15.91C102.863 15.3233 103.023 14.6867 103.023 14C103.023 13.3 102.863 12.6567 102.543 12.07C102.223 11.4767 101.79 11.0033 101.243 10.65C100.703 10.2967 100.097 10.12 99.4234 10.12C98.7434 10.12 98.1301 10.3 97.5834 10.66C97.0434 11.0133 96.6134 11.4833 96.2934 12.07C95.9801 12.6567 95.8234 13.3 95.8234 14C95.8234 14.72 95.9868 15.3733 96.3134 15.96C96.6401 16.54 97.0768 17.0033 97.6234 17.35C98.1701 17.69 98.7701 17.86 99.4234 17.86Z" fill="#4F3422"/>
</svg>
